<?xml version="1.0" encoding="UTF-8"?>
<svg id="Layer_2" data-name="Layer 2" xmlns="http://www.w3.org/2000/svg" viewBox="0 0 1073.51 1082.88">
  <defs>
    <style>
      .cls-1 {
        fill: #fff;
        stroke-width: 0px;
      }
    </style>
  </defs>
  <g id="Layer_1-2" data-name="Layer 1">
    <g>
      <path class="cls-1" d="M1073.51,1082.88h-413.03l-340.55-471.14,248.24-143.41c32.21-18.6,52.04-51.93,53.02-89.12.94-37.23-17.1-71.54-48.33-91.78L130.18,0h395.71c315.58,0,512.05,153.16,512.05,400.65,0,162.46-82,280-222.75,343.44l258.33,338.79Z"/>
      <path class="cls-1" d="M534.43,409.88l-254.24,146.86-222.22,128.38c-6.22,3.6-12.82,5.25-19.27,5.25-20.17,0-38.69-16.12-38.69-38.69V67.15c0-11.96,5.17-22.05,13.01-28.94,7.01-6.19,16.2-9.79,25.76-9.79,7.01,0,14.25,1.99,20.92,6.3l476.43,309.32c24.22,15.71,23.28,51.44-1.69,65.84Z"/>
    </g>
  </g>
</svg>