<?xml version="1.0" encoding="UTF-8"?>
<svg id="Layer_2" data-name="Layer 2" xmlns="http://www.w3.org/2000/svg" viewBox="0 0 582.75 264.31">
  <defs>
    <style>
      .cls-1 {
        fill: #000;
        stroke-width: 0px;
      }
    </style>
  </defs>
  <g id="Layer_1-2" data-name="Layer 1">
    <g>
      <path class="cls-1" d="M85.87,69.27c4.59-4.83,7.15-10.84,8.19-17.65C98.15,25.95,77.38,1.65,51.97,1.17c-10.53-.32-20.95-.13-31.5-.22C10.4.73,3.91,2.43.72,12.98l-.05.2c-1.43,31.16-.07,62.57-.52,93.81-.09,3.05.5,6.07,2.03,8.73,2.17,3.88,4.52,7.52,8.53,9.24,9.12,4.06,19.97-2.13,22.37-11.67,1.37-5.43.59-11.12.97-16.57.18-2.32.72-5.05,2.61-6.56,4.74-2.74,8.2,3.98,10.6,7.14,1.93,2.63,3.84,5.27,5.77,7.9,1.19-.16,2.42-.23,3.69-.23.75,0,1.54.03,2.34.08,2.21-.02,4.43-.03,6.65-.03,5.98,0,13.87.07,21.83.6h.08c.45.03.9.06,1.35.1,1.73.07,3.42.2,5.05.38-.01-.02-.02-.04-.03-.06-3.49-7.72-8.2-14.65-12.5-21.95-4.74-7.37-1.22-9.42,4.38-14.82ZM51.33,55.65c-2.99.69-6,.59-9.05.59-9.32.19-8.66-2.18-8.45-10.63v-.21c.03-2.18-.11-4.96.14-6.97.38-5.37,7.83-3.92,11.82-4.07,5.62-.09,12.74,2.67,14.11,8.75,1.47,5.79-2.3,11.18-8.57,12.54ZM66.75,115.05c.91,0,1.83-.01,2.74-.02-1.08-.01-2.15-.01-3.22-.01.16.01.32.02.48.03ZM60.71,115.36c.77-.16,1.58-.28,2.45-.33-.9,0-1.8.01-2.7.01.08.11.17.21.25.32Z"/>
      <path class="cls-1" d="M578.77,118.94c-6.5,8.11-16,7.38-22.79,1.81-1.95-1.59-3.67-3.57-5.04-5.87-.27-.43-.51-.88-.75-1.34-5.37-7.47-10.74-14.95-16.12-22.42-3.58-3.16-18.03-31.41-18.14-14.34-.15,8.59-.19,17.22-.24,25.83.03.24.06.47.08.71-.25-.01-.5-.01-.75-.01-8.12,0-16.12,1.64-23.15,4.73-2.98,1.31-5.75,2.85-8.3,4.63-1.23-5.29-1.53-10.97-1.52-15.41-.02-27.67-.26-55.37.61-83.05.86-11.72,17.83-18.9,26.28-10.66,11.93,13.76,22.47,28.78,33.62,43.17,1.56,1.56,2.71,5.51,5.25,5.18l.09-.05c1.44-1.25,1.24-3.97,1.4-5.82.29-10.75-.42-21.61.32-32.36,2.76-20.95,34.42-15.75,32.52,4.4.37,22.75.33,45.47.43,68.2-.93,10.67,2.66,23.37-3.8,32.67Z"/>
      <path class="cls-1" d="M171.61,114.72c-2.35,0-4.68.04-7.03.06.41.01.82.01,1.23.01,2.35,0,4.69-.04,7.04-.06-.41-.01-.82-.01-1.24-.01ZM214.58,61.39c-.35-40.24-40.45-73.25-79.45-56.48-49,20.42-48.06,88.97-4.16,111.95,6.14-12.16,18.78-12.19,23.66-12.19h.03c1.28,0,2.52.04,3.71.07,1.09.02,2.12.05,3.09.05h.35c1.6,0,3.2-.02,4.79-.04,1.67-.01,3.34-.03,5.01-.03,4.33,0,7.67.13,10.83.41,1.84.17,3.65.39,5.37.67h.05s.05.01.05.01c2.46.42,4.84.99,7.12,1.72,12.16-11.78,19.6-28.57,19.56-45.94v-.2ZM179.56,60.89c.29,15.25-10.91,27.25-26.24,25.41-20.86-3.11-27.57-29.46-13.78-43.66.13,1.84-.03,3.95-.17,6.72v.14c-.05,2.73-.27,5.85.5,8.6,2.62,8.55,11.04,7.05,12.8-1.5.52-2.52-.23-5.31.72-7.7,2.09-4.51,6.81.58,6.58,3.73.34,5.74-3.17,12.28.22,17.58,2.7,4.42,9.57,4.04,11.68-.68,2.05-4.41,1.4-9.56,1.24-14.26-.12-2.32-.15-4.82,1.59-6.61.43-.5.85-.83,1.24-1,2.29,3.87,3.64,8.35,3.62,13.02v.21Z"/>
      <path class="cls-1" d="M401.15,121.37c-.92-.79-1.71-1.7-2.38-2.71.86.79,1.66,1.7,2.38,2.71Z"/>
      <path class="cls-1" d="M475.58,118.42c-1.69,2.48-3.91,3.96-6.43,4.84-.06-.35-.13-.68-.21-1.01-2.54-10.97-11.8-18.34-23.06-18.34s-21.38,7.94-23.36,19.31c-.1.59-.19,1.19-.24,1.8-1.93.01-3.85.01-5.78,0-2.1-2.8-4.23-5.56-6.42-8.31-3.54-5.48-8.78-9.45-14.59-11.26,0-.64.02-1.29.05-1.94.06-14.28-.4-28.66.25-42.88l.02-.18c.53-14.58-.09-29.3.24-43.94-.58-10.55,5.96-16.69,16.46-16.15,15.62-.09,31.18-.11,46.79-.01,4.36-.05,9.25.5,12.7,3.25,7.99,6.12,8.49,20.9.56,27.32-7.01,5.21-16.78,2.8-25.02,3.24-4.84.42-14.07-1.56-16.97,2.35-1.26,2.24-1.3,5.36-.16,7.67,1.19,2.28,4.21,2.53,7.14,2.57,6.16-.04,12.15-.12,18.26.09,3.53.08,7.05.62,9.98,2.7,12.14,8.18,6.65,28.42-8.44,27.8-5.18.25-10.4.14-15.6.16-3.94.12-9.66-.42-11.53,2.77-1.57,3.19-1.41,9,3.02,9.64,12.14,1.74,24.91-.91,36.84,2.46,9.77,3.42,11.05,18.12,5.5,26.05Z"/>
      <path class="cls-1" d="M392.54,15.03c-2.29,6.28-2.37,17.07-10.61,19.18-5.49,2.08-15.01-1.9-17.23,4.69-.23.69-.32,1.42-.35,2.14l-12.37,187.48c-.05.78-.19,1.54-.4,2.25-3.11-1.58-6.62-2.46-10.33-2.46-3.12,0-6.09.62-8.8,1.75-.09-.5-.14-1.01-.16-1.55-.16-4.59-.32-9.35-.47-14.23-.1-3.36-.21-6.77-.3-10.21t-.01-.02v-.02c-1.35-46.18-2.29-97.9-2.28-100.76-.14-9.49.24-19.04-.18-28.51v-.19c-.39-9.74-.05-19.5-.18-29.28-.04-2.08-.02-4.45-.56-6.43-.94-3.93-5.6-3.4-8.86-3.83-11.76-.89-17.93-7.24-17.83-18.32-.29-8.35,4.33-15.11,12.95-16.13,19.45-.71,38.85.14,58.29-.46,10.18-.47,23.48,4.49,19.68,14.91Z"/>
      <path class="cls-1" d="M282.89,34.45c-10.73.06-9.7,2.9-9.99,11.92-.21,19.24-.23,38.54-.43,57.81-.8.04-1.58.12-2.36.23-9.58,1.38-17.16,7.65-20.77,17.21l-.02.04v.04s-.07.16-.07.16c-.05.12-.1.24-.14.36-.32.83-.63,1.66-.96,2.49-1.99-.81-3.8-1.99-5.27-3.55-3.61-4.15-5.06-9.9-5.37-15.31-.33-10.53-.61-21.37.21-31.87l.02-.18c.65-9.27.1-18.67.28-27.98-.22-3.64.91-9.76-3.84-10.68-5.48-.83-11.42.87-16.71-1.48-9.73-4.12-11.62-20.36-5.27-27.75,3.12-3.65,8.55-5.3,13.36-5.23,16.65-.34,33.34-.29,50.01-.35,9.48-.46,19.74.59,22.19,11.41,2.34,11.42-1.75,22.53-14.87,22.71Z"/>
      <path class="cls-1" d="M123.85,176.76c-1.46-2.87-3.44-5.43-5.99-7.7-1.2-1.18-2.83-2.4-3-4.17-.1-1.98,1.66-3.89,2.66-5.57,7.05-10.26,4.49-23.94-3.32-33.18-6.28-7.67-16.27-10.08-25.83-10.44-.48-.04-.97-.07-1.45-.1-5.79-.39-11.61-.53-17.43-.57-1.08-.01-2.15-.01-3.22-.01-1.11-.07-2.14-.06-3.11.01-.9,0-1.8.01-2.7.01-.57,0-1.14.01-1.71.01-.71-.05-1.38-.08-2.03-.08-1.47,0-2.8.13-4.01.39-7.01,1.49-9.54,7.24-9.18,15.98.11,18.63-.39,37.28-.54,55.91v.16c.05,7.58-.15,15.22.08,22.81.34,4.12,3.17,7.59,6.63,9.46,2.43,1.34,5.46,1.74,8.42,1.74,1.07,0,2.13-.05,3.15-.13,12.14-1.1,24.44.37,36.48-1.75,8.58-1.79,17.03-5.83,22.79-12.62,6.87-8.32,8.21-20.58,3.31-30.16ZM72.2,145.29c1.65-2.96,5.21-3.64,8.62-3.64,1.29,0,2.55.09,3.68.2,4.77.23,9.38,3.92,8.18,8.74-1.04,4.71-6.47,5.97-10.87,5.97-.62,0-1.23-.03-1.8-.07h-.16c-2.05-.09-4.44.23-6.28-.93-3.26-2.24-2.67-7.07-1.37-10.27ZM96.09,189.38c-2.49,4.62-9.93,4.62-14.39,4.73h-.13c-10.46-.2-10.05-.13-9.75-10.56.18-4.2,4.08-4.39,7.48-4.39.33,0,.64.01.95.01.41,0,.81-.01,1.19-.02h.39c1.11,0,2.22-.03,3.32-.03,2.29,0,4.55.15,6.69,1.09,3.64,1.29,6.09,5.51,4.25,9.17Z"/>
      <g>
        <path class="cls-1" d="M398.77,118.66c.67,1.01,1.46,1.92,2.38,2.71-.72-1.01-1.52-1.92-2.38-2.71Z"/>
        <path class="cls-1" d="M456.45,217.77c-3.03,2.87-6.45,4.13-9.83,4.13-5.92,0-11.7-3.87-15.04-9.74-8.22-10.83-16.07-21.88-24.15-32.76-1.1-1.68-2.22-2.48-3.11-2.48-1.19,0-1.99,1.42-1.86,4.08-.23,9.44.12,18.93-.28,28.37.26,6.52-5.79,9.4-8.2,14.56-1.21,4.19.3,8.76-1.48,12.86-1.23,3.42-3.99,5.06-6.77,5.06-3,0-6.04-1.9-7.22-5.5-1.65-8.2-1.68-16.69-3.56-24.94-1.34-25.85-.2-51.85-.65-77.76-.03-4.34.3-8.91,2.67-12.59,2.86-4.6,7.1-6.71,11.43-6.71,3.65,0,7.38,1.51,10.37,4.31.67,1.01,1.46,1.92,2.38,2.71.27.37.53.75.77,1.15,9.12,11.38,17.37,23.46,25.55,35.51,1.14,1.75,2.16,2.53,2.97,2.53,1.21,0,1.93-1.72,1.82-4.46.2-9.69.09-19.39-.11-29.08.03-.72.1-1.4.22-2.06,1.07-6.26,5.79-9.95,11.02-10.83.82-.15,1.66-.22,2.49-.22,5.84,0,11.67,3.44,13.33,10.62h0c.07.3.13.6.18.9.92,13.77.16,27.69.35,41.48v.16c-1.24,11.94,3.23,43-3.29,50.7Z"/>
      </g>
      <path class="cls-1" d="M547.42,204.24c-1.51,2.22-3.02,4.62-3.62,7.16-1.69,8.39,1.48,17.47-1.73,25.59-1.28,3.23-4.31,5.07-7.34,5.07-2.19,0-4.38-.96-5.89-3.06-2.46-2.95-1.52-7.29-2.42-10.59-.61-2.05-1.85-4.05-3.46-4.05-.73,0-1.52.41-2.37,1.4-2.02,2.06-1.98,4.96-1.85,7.65.19,5.44.94,11.41-1.43,16.53-1.29,2.89-4.13,4.37-6.97,4.37-2.54,0-5.09-1.18-6.56-3.59-3.94-6.15.14-13.72-.25-20.36.19-2.62-2.57-6.39-5.04-6.39-.98,0-1.91.58-2.59,2.06-1.1,2.77-.23,6.01-.83,8.92-1.11,5.39-4.5,8.36-7.85,8.36-2.82,0-5.61-2.1-6.99-6.62-.89-3.19-.64-6.81-.59-9.97v-.16c.47-8.78,1.03-11.87-5.35-18.58-5.97-7.7-3.6-18.64,5.04-23.57,1.52-.88,3.27-1.46,5.01-1.46.67,0,1.32.08,1.97.26,6.99,2.53,13.42,6.6,20.41,9.11,1.7.66,3.45,1.17,5.28,1.17h.2c.11.01.22.01.33.01,4.14,0,10.5-3.71,7.86-8.28-2.77-3.58-8.07-3.92-12.18-5.08-12.72-2.36-27.29-7.47-31.44-20.88-5.54-20.87,4.22-35.52,19.13-42.07,4.21-1.85,8.82-3.06,13.63-3.58,1.8-.2,3.64-.3,5.49-.3h.02c3.54,0,7.14.37,10.69,1.12,6.01,1.26,11.92,3.62,17.31,7.14,7.09,4.14,6.55,11.4,2.35,17.66-2.19,3.46-4.9,6.94-8.61,8.27-1.13.36-2.24.52-3.33.52-7.18,0-13.51-6.86-20.89-6.86-.13,0-.25.01-.38.01-5.54.06-9.68,3.97-5.33,8.78,1.87,2.02,4.56,2.72,7.18,3.54,3.7,1.13,7.44,2.07,11.18,3.07,12.55,2.87,24.8,9.79,27.04,24.02,1.61,8.32.14,16.58-4.83,23.66Z"/>
      <g>
        <path class="cls-1" d="M156.93,114.7c1.53.04,3.05.09,4.53.09h.35c.82,0,1.63,0,2.45-.01-2.41-.04-4.9-.16-7.33-.08ZM171.61,114.72c-2.35,0-4.68.04-7.03.06.41.01.82.01,1.23.01,2.35,0,4.69-.04,7.04-.06-.41-.01-.82-.01-1.24-.01Z"/>
        <path class="cls-1" d="M156.93,114.7c1.53.04,3.05.09,4.53.09h.35c.82,0,1.63,0,2.45-.01-2.41-.04-4.9-.16-7.33-.08Z"/>
        <path class="cls-1" d="M205.71,186.94c-1.4-2.34-3.5-5.33-1.79-8.01.78-1.25,2.03-2.28,3.15-3.25,3.18-2.61,5.67-5.43,7.46-8.63,3.73-6.48,4.23-14.43,2.65-21.82-3.27-15.91-14.57-26.75-30.96-29.56-1.55-.25-3.11-.44-4.67-.58-2.79-.25-5.59-.34-8.39-.36h-.31c-2.35.02-4.69.06-7.04.06-.41,0-.82,0-1.23-.01h-.32c-.82.01-1.63.01-2.45.01h-.35c-1.48,0-3-.05-4.53-.09h-.05c-.74-.02-1.48-.03-2.22-.03-5.79,0-11.37.76-14.45,6.11-.21.36-.41.75-.59,1.15-.14.3-.28.61-.4.94-1.12,2.84-1.21,6.08-1.14,9.14.22,11.76.15,23.55-.03,35.29v.16c-.2,12.1-.15,24.25-.08,36.36.02,3.35.19,6.99,1.66,10.04,2.21,5.15,7.28,7.68,12.38,7.68,5.35,0,10.73-2.79,12.86-8.24,1.86-4.55,1.37-9.8,1.44-14.63.11-3.25-.73-7.82,2.64-9.42.47-.21.93-.3,1.37-.3,1.83,0,3.44,1.56,4.44,3.09,5.44,7.83,10.64,15.86,16.36,23.51,2.75,3.88,7.25,6.26,11.85,6.26,1.77,0,3.54-.35,5.24-1.1,7.67-3.42,10.99-10.93,6.58-18.54-2.79-5.26-5.96-10.19-9.08-15.23ZM187.2,156.81c-2.42,3.65-7.43,4.3-11.49,4.3-1.07.05-2.01.07-2.84.07-6.07,0-6.32-1.52-6.17-9.14v-.16c.07-3.06-.54-7.53,2.92-8.69,1.6-.59,3.4-.59,5.1-.65.55-.01,1.1-.02,1.66-.02,1.83,0,3.69.1,5.53.65,6.04,1.65,8.93,8.62,5.29,13.64Z"/>
      </g>
      <path class="cls-1" d="M321.57,205.46c-6.69-19.42-15.15-38.2-22.47-57.4-2.74-6.94-5.35-13.93-8.27-20.79-2.13-5.61-5.89-11.25-12.04-12.57-1.62-.38-3.21-.57-4.74-.57-.85,0-1.69.06-2.5.18-5.78.83-10.49,4.58-12.86,10.85-.07.19-.15.39-.22.58-9.25,24.25-19.08,48.28-28.58,72.47-1.12,2.85-2.3,5.97-2.57,9.05-1.14,8.58,5.91,14.15,13.08,14.15,3.52,0,7.06-1.34,9.69-4.31,2.59-2.81,4.06-6.48,5.48-9.93,1.73-4.78,4.37-6.62,9.01-6.62.29,0,.58.01.89.02,3.03.05,6.03.07,9.02.07s5.69-.02,8.56-.07c.36-.02.71-.03,1.05-.03,4.78,0,7.07,2.07,8.96,6.74,3.29,7.27,5.98,14.83,14.98,14.83.22,0,.44,0,.67-.01h.17c9.99-.06,15.19-7.26,12.69-16.64ZM280.53,173.52c-.94,1.88-2.89,2.44-4.84,2.44-.41,0-.81-.02-1.2-.06h-.18c-2.48-.15-6.98.07-5.93-3.57.9-3.47,2.31-6.69,3.82-9.97.52-1.13,1.61-2.45,2.77-2.45.46,0,.94.21,1.39.73,1.7,2.07,2.5,4.86,3.5,7.32.63,1.93,1.57,3.86.67,5.56Z"/>
      <circle class="cls-1" cx="341.25" cy="251.31" r="13"/>
      <path class="cls-1" d="M341.25,264.31c-7.18,0-13-5.82-13-13s5.82-13,13-13,13,5.82,13,13-5.82,13-13,13Z"/>
    </g>
  </g>
</svg>