<?xml version="1.0" encoding="UTF-8"?>
<svg id="Layer_2" data-name="Layer 2" xmlns="http://www.w3.org/2000/svg" viewBox="0 0 3042.72 312.68">
  <defs>
    <style>
      .cls-1 {
        fill: #000;
        stroke-width: 0px;
      }
    </style>
  </defs>
  <g id="Layer_1-2" data-name="Layer 1">
    <g>
      <path class="cls-1" d="M423.5,69.44c-78.47,0-135.59,51.36-135.59,121.21s56.7,122.03,135.18,122.03,135.18-52.18,135.18-122.44-56.7-120.8-134.77-120.8ZM423.5,232.15c-20.95,0-36.56-17.26-36.56-41.91s15.2-40.68,36.15-40.68,36.16,17.26,36.16,41.09-15.2,41.5-35.75,41.5Z"/>
      <path class="cls-1" d="M743.33,223.52c-13.97,5.34-25.47,7.4-36.15,7.4-11.51,0-18.08-6.99-18.08-19.32v-62.86h64.51v-73.14h-64.51V21.78h-36.98l-45.2,48.48-40.68,43.14v35.34h25.07v73.55c0,59.57,34.92,90.39,95.32,90.39,22.6,0,50.54-5.34,74.37-17.67l-17.67-71.49Z"/>
      <path class="cls-1" d="M946.72,223.52c-13.97,5.34-25.48,7.4-36.16,7.4-11.5,0-18.08-6.99-18.08-19.32v-62.86h64.51v-73.14h-64.51V21.78h-36.98l-45.2,48.48-40.67,43.14v35.34h25.06v73.55c0,59.57,34.93,90.39,95.33,90.39,22.59,0,50.53-5.34,74.37-17.67l-17.67-71.49Z"/>
      <path class="cls-1" d="M1226.65,170.52c0-57.94-48.48-101.08-121.21-101.08-78.48,0-131.48,51.36-131.48,121.21,0,74.78,59.99,122.03,133.53,122.03,30.41,0,61.23-7.81,91.22-24.65l-19.31-61.63c-20.14,9.03-41.5,13.97-60.4,13.97-23.83,0-44.79-6.17-51.36-26.71h150.38c5.75-14.38,8.63-28.76,8.63-43.14ZM1067.23,173.8c2.87-21.77,12.32-33.69,34.1-33.69s31.23,10.68,32.46,32.87l-66.56.82Z"/>
      <path class="cls-1" d="M1416.89,69.44c-27.53,0-52.19,13.56-68.62,36.16v-30h-98.2v231.33h98.2v-129.43c6.16-12.74,17.26-22.6,31.64-22.6,17.25,0,26.29,9.45,26.29,32.05v119.98h98.2v-142.58c0-61.22-31.63-94.91-87.51-94.91Z"/>
      <path class="cls-1" d="M1878.3,156.55c27.94-12.33,44.37-34.11,44.37-64.1,0-46.84-39.85-73.14-108.06-73.14h-160.65v287.62h163.94c72.73,0,115.87-30,115.87-80.53,0-34.52-20.55-57.94-55.47-69.85ZM1753.39,90.8h42.73c16.03,0,25.48,6.58,25.48,20.96,0,13.15-9.45,20.54-25.89,20.54h-42.32v-41.5ZM1804.75,235.43h-51.36v-43.96h51.36c17.26,0,27.12,7.81,27.12,21.37,0,15.2-9.45,22.59-27.12,22.59Z"/>
      <path class="cls-1" d="M2117.96,69.85c-28.35,0-47.25,13.97-58.75,36.98v-31.23h-98.2v231.33h98.2v-93.27c0-33.28,17.26-56.7,43.14-56.7l34.51.41,9.87-83.41c-10.28-2.88-20.14-4.11-28.77-4.11Z"/>
      <path class="cls-1" d="M2253.76,69.44c-32.87,0-60.81,4.11-87.52,11.09l6.99,72.73c21.36-6.58,43.96-9.86,68.61-9.86,28.77,0,41.5,9.86,41.5,26.7v.42c-15.2-.83-36.16-1.65-50.12-1.65-63.69,0-97.38,25.07-97.38,70.26s33.69,73.55,81.35,73.55c29.58,0,53.42-12.33,66.56-33.28v27.53h97.79v-128.2c0-65.33-36.15-109.29-127.78-109.29ZM2283.34,214.07c-2.05,20.95-15.2,30.82-32.05,30.82-12.73,0-21.36-7.4-21.36-18.08,0-12.74,10.27-20.55,28.76-20.55,10.27,0,17.67,0,24.65.41v7.4Z"/>
      <path class="cls-1" d="M2413.88,75.6v231.33h98.2V75.6h-98.2ZM2412.24,0v59.99h101.07V0h-101.07Z"/>
      <path class="cls-1" d="M2713.45,69.44c-27.53,0-52.19,13.56-68.62,36.16v-30h-98.2v231.33h98.2v-129.43c6.16-12.74,17.26-22.6,31.64-22.6,17.25,0,26.29,9.45,26.29,32.05v119.98h98.2v-142.58c0-61.22-31.63-94.91-87.51-94.91Z"/>
      <path class="cls-1" d="M2944.52,158.6c-26.71-3.7-30.41-6.99-30.41-12.33,0-4.52,3.29-9.45,16.85-9.45,25.89,0,62.04,9.04,87.11,17.26l10.27-67.38c-26.71-9.04-57.94-17.26-92.86-17.26-61.63,0-110.94,27.53-110.94,80.53,0,43.14,27.53,62.04,94.5,71.08,25.89,3.7,33.7,6.99,33.7,13.97.41,8.22-8.22,10.69-17.67,10.69-34.51,0-69.85-6.99-97.79-20.55l-10.68,69.44c29.99,12.74,56.7,18.08,101.48,18.08,64.92,0,114.64-27.94,114.64-80.94,0-44.38-32.46-64.51-98.2-73.14Z"/>
      <path class="cls-1" d="M286.32,306.93h-110.16l-90.83-125.66,66.21-38.25c8.59-4.96,13.88-13.85,14.14-23.77.25-9.93-4.56-19.08-12.89-24.48L34.72,18.11h105.54c84.17,0,136.57,40.85,136.57,106.86,0,43.33-21.87,74.68-59.41,91.6l68.9,90.36Z"/>
      <path class="cls-1" d="M142.54,127.43l-67.81,39.17-59.27,34.24c-1.66.96-3.42,1.4-5.14,1.4-5.38,0-10.32-4.3-10.32-10.32V36.02c0-3.19,1.38-5.88,3.47-7.72,1.87-1.65,4.32-2.61,6.87-2.61,1.87,0,3.8.53,5.58,1.68l127.07,82.5c6.46,4.19,6.21,13.72-.45,17.56Z"/>
    </g>
  </g>
</svg>